<svg width="613" height="365" viewBox="0 0 613 365" fill="none" xmlns="http://www.w3.org/2000/svg">
<g clip-path="url(#clip0)">
<path opacity="0.1" d="M566 288.623C565.318 290.27 564.637 291.895 563.958 293.497C562.898 295.987 561.852 298.428 560.82 300.821C560.361 301.882 559.902 302.922 559.454 303.963C554.392 315.535 549.665 325.771 545.65 334.188C542.007 341.815 536.598 348.206 529.989 352.69C523.38 357.175 515.815 359.588 508.086 359.678L418.814 360.764H417.872L410.219 360.857L403.673 360.936L383.599 361.179H382.787L372.567 361.305H372.255L309.267 362.069L253.043 362.727L246.502 362.806L205.884 363.3H205.837L179.493 363.616H179.211L95.9132 364.624L70.9946 364.927C65.6769 364.994 60.3816 364.146 55.2946 362.411C46.4421 359.419 38.4864 353.783 32.2832 346.11C21.5811 332.917 13.7812 317.525 8.54195 300.821C7.78452 298.411 7.07811 295.969 6.42272 293.497C-11.7144 224.9 10.3963 136.398 50.1908 77.1726C51.8587 74.6962 53.5541 72.2811 55.2769 69.9276L55.3181 69.8749C67.5567 53.0663 81.2787 39.0241 95.8956 29.0391C121.797 11.315 150.495 6.32247 178.722 21.2012C202.605 33.7945 224.904 39.7156 246.52 41.3227C248.704 41.4808 250.888 41.5994 253.06 41.6718C302.644 43.4172 349.115 23.4274 403.685 10.5246C405.857 10.0109 408.035 9.50371 410.231 9.0229C449.16 0.355164 492.345 -4.21581 543.701 5.39378C549.037 6.36901 554.302 7.77784 559.454 9.60909C561.719 10.4258 563.901 11.304 566 12.2437C590.513 23.4011 603.882 44.0166 609.562 69.8485C610.1 72.246 610.565 74.6852 610.958 77.1661C621.03 139.302 591.531 227.442 566 288.623Z" fill="#870738"/>
<g opacity="0.1">
<path opacity="0.1" d="M95.8954 29.0396V364.697L70.9767 365C65.659 365.067 60.3638 364.219 55.2767 362.484V69.8754H55.3179C67.5565 53.0471 81.2786 39.0048 95.8954 29.0396Z" fill="#870738"/>
<path opacity="0.1" d="M610.987 77.1732H50.1906C51.8585 74.6967 53.5539 72.2817 55.2767 69.9281V69.8754H609.592C610.129 72.2597 610.594 74.6923 610.987 77.1732Z" fill="#870738"/>
<path opacity="0.1" d="M566 12.2508V293.491H563.957C562.898 295.981 561.852 298.422 560.82 300.815C560.361 301.876 559.901 302.916 559.454 303.957V9.58984C561.718 10.4066 563.9 11.2935 566 12.2508Z" fill="#870738"/>
<path opacity="0.1" d="M410.231 9.00366V360.884L403.685 360.963V10.5054C405.857 9.99163 408.035 9.48447 410.231 9.00366Z" fill="#870738"/>
<path opacity="0.1" d="M253.06 41.6526V362.794L246.52 362.873V41.3035C248.704 41.4616 250.888 41.5538 253.06 41.6526Z" fill="#870738"/>
<path opacity="0.1" d="M563.957 293.498C562.898 295.987 561.852 298.429 560.82 300.822H8.54172C7.78429 298.411 7.07788 295.97 6.42249 293.498H563.957Z" fill="#870738"/>
</g>
<path d="M135.749 175.087H124.564V213.064H135.749V175.087Z" fill="#3F3D56"/>
<path d="M436.756 173.111H425.572V213.288H436.756V173.111Z" fill="#3F3D56"/>
<path d="M508.086 351.485V360.047L418.655 360.969L417.701 360.989L383.711 361.338L382.898 361.351L372.567 361.45H372.261L309.284 362.102L205.907 363.176H205.819L179.534 363.452L179.252 363.459L62.4585 364.658V354.778L89.9202 336.336L145.02 335.822L146.198 335.816L146.586 335.809L147.764 335.789L174.219 335.546L175.402 335.539L175.779 335.532L176.956 335.526L185.439 335.447L185.662 335.44L206.59 335.243H206.761L370.059 333.701L374.056 333.668H374.457L377.506 333.635L399.67 333.431L400.847 333.412L401.936 333.398H402.501L409.395 333.339L410.76 333.319L412.591 333.306L418.331 333.247L427.438 333.161L428.615 333.148L430.664 333.135H431.046L475.026 332.713L508.086 351.485Z" fill="#65617D"/>
<path opacity="0.2" d="M508.086 351.485V360.047L418.655 360.969L417.701 360.989L383.711 361.338L382.898 361.351L372.567 361.45H372.261L309.284 362.102L205.907 363.176H205.819L179.534 363.452L179.252 363.459L62.4585 364.658V354.778L89.9202 336.336L145.02 335.822L146.198 335.816L146.586 335.809L147.764 335.789L174.219 335.546L175.402 335.539L175.779 335.532L176.956 335.526L185.439 335.447L185.662 335.44L206.59 335.243H206.761L370.059 333.701L374.056 333.668H374.457L377.506 333.635L399.67 333.431L400.847 333.412L401.936 333.398H402.501L409.395 333.339L410.76 333.319L412.591 333.306L418.331 333.247L427.438 333.161L428.615 333.148L430.664 333.135H431.046L475.026 332.713L508.086 351.485Z" fill="black"/>
<path d="M174.307 318.559V334.689C174.307 335.453 174.114 336.202 173.749 336.848C173.384 337.493 172.863 338.01 172.247 338.338C171.787 338.587 171.285 338.722 170.775 338.733L150.23 339.221C149.681 339.235 149.137 339.107 148.641 338.845C148.013 338.523 147.481 338.006 147.109 337.356C146.736 336.706 146.538 335.949 146.539 335.177V318.559H174.307Z" fill="#3F3D56"/>
<path opacity="0.1" d="M174.307 318.559V334.689C174.307 335.453 174.114 336.202 173.749 336.848C173.384 337.493 172.863 338.01 172.247 338.338C171.787 338.587 171.285 338.722 170.775 338.733L150.23 339.221C149.681 339.235 149.137 339.107 148.641 338.845C148.013 338.523 147.481 338.006 147.109 337.356C146.736 336.706 146.538 335.949 146.539 335.177V318.559H174.307Z" fill="black"/>
<path d="M175.484 318.559V334.689C175.485 335.453 175.291 336.202 174.926 336.848C174.562 337.493 174.041 338.01 173.424 338.338C172.965 338.587 172.463 338.722 171.952 338.733L151.407 339.221C150.859 339.235 150.315 339.107 149.818 338.845C149.19 338.523 148.659 338.006 148.286 337.356C147.913 336.706 147.716 335.949 147.716 335.177V318.559H175.484Z" fill="#3F3D56"/>
<path d="M428.615 318.559H400.847V339.306H428.615V318.559Z" fill="#3F3D56"/>
<path opacity="0.1" d="M428.615 318.559H400.847V339.306H428.615V318.559Z" fill="black"/>
<path d="M427.438 318.559H399.67V339.306H427.438V318.559Z" fill="#3F3D56"/>
<path opacity="0.1" d="M135.749 175.08V178.854L124.564 178.532V175.08H135.749Z" fill="black"/>
<path d="M209.369 68.7623L195.929 176.78C195.844 177.47 195.534 178.1 195.06 178.551C194.585 179.002 193.979 179.241 193.357 179.223L85.7466 176.101L83.7039 176.042C83.3482 176.033 82.9983 175.939 82.677 175.768C82.3557 175.598 82.0702 175.353 81.8392 175.05C81.6081 174.748 81.4366 174.394 81.336 174.012C81.2353 173.63 81.2077 173.229 81.255 172.834L96.3427 59.7587C96.44 59.0582 96.7685 58.4241 97.2633 57.9814C97.7581 57.5388 98.3833 57.3198 99.0153 57.3678L207.014 65.5481C207.362 65.5707 207.703 65.6739 208.014 65.8511C208.325 66.0283 208.6 66.2757 208.821 66.5778C209.042 66.8798 209.205 67.2298 209.299 67.6058C209.394 67.9818 209.417 68.3756 209.369 68.7623Z" fill="#65617D"/>
<path d="M103.566 65.311L92.1866 164.983L191.084 168.494L203.246 72.3321L103.566 65.311Z" fill="#870738"/>
<path d="M343.751 63.7698H229.542C227.81 63.7698 226.405 65.3415 226.405 67.2803V174.422C226.405 176.361 227.81 177.932 229.542 177.932H343.751C345.484 177.932 346.889 176.361 346.889 174.422V67.2803C346.889 65.3415 345.484 63.7698 343.751 63.7698Z" fill="#65617D"/>
<path d="M341.585 71.4561H232.091V166.518H341.585V71.4561Z" fill="#870738"/>
<path opacity="0.1" d="M436.756 173.104V175.601L425.572 175.858V173.104H436.756Z" fill="black"/>
<path d="M487.224 170.997C487.239 171.27 487.206 171.543 487.125 171.801C487.044 172.059 486.917 172.296 486.752 172.498C486.587 172.7 486.387 172.862 486.165 172.976C485.943 173.089 485.702 173.151 485.457 173.157L375.257 175.706C374.8 175.717 374.355 175.533 374.013 175.192C373.672 174.851 373.458 174.379 373.415 173.869L363.943 63.6907C363.92 63.4174 363.946 63.1416 364.021 62.88C364.095 62.6184 364.217 62.3766 364.378 62.169C364.538 61.9615 364.735 61.7926 364.956 61.6727C365.176 61.5527 365.417 61.4841 365.662 61.4711L475.026 55.3853L476.204 55.3194C476.672 55.2918 477.131 55.4687 477.484 55.8128C477.838 56.1569 478.058 56.6412 478.099 57.1636L487.224 170.997Z" fill="#65617D"/>
<path d="M370.236 67.9456L470.117 62.4525L478.552 162.566L379.461 165.201L370.236 67.9456Z" fill="#870738"/>
<path opacity="0.1" d="M487.223 170.997C487.239 171.27 487.206 171.543 487.125 171.801C487.044 172.059 486.917 172.296 486.752 172.498C486.587 172.7 486.387 172.862 486.165 172.976C485.942 173.089 485.702 173.151 485.457 173.157L475.026 55.3853L476.203 55.3194C476.671 55.2918 477.131 55.4687 477.484 55.8128C477.838 56.1569 478.058 56.6412 478.099 57.1636L487.223 170.997Z" fill="black"/>
<path opacity="0.1" d="M99.033 57.3612L85.7466 176.101L83.7039 176.042C83.3482 176.033 82.9983 175.939 82.677 175.768C82.3557 175.598 82.0702 175.353 81.8392 175.05C81.6081 174.748 81.4366 174.394 81.336 174.012C81.2353 173.63 81.2077 173.229 81.255 172.834L96.3428 59.7586C96.4389 59.0534 96.7693 58.4147 97.2681 57.9702C97.7668 57.5257 98.3971 57.3082 99.033 57.3612Z" fill="black"/>
<path opacity="0.1" d="M135.749 201.815H124.564V213.064H135.749V201.815Z" fill="black"/>
<path opacity="0.1" d="M175.484 318.553V321.826L147.716 322.656V318.553H175.484Z" fill="black"/>
<path d="M224.492 205.734V316.517C224.485 317.194 224.245 317.841 223.823 318.325C223.401 318.809 222.829 319.094 222.225 319.119L109.405 322.478H109.376C108.762 322.47 108.175 322.193 107.74 321.707C107.306 321.221 107.058 320.564 107.051 319.876V205.734C107.058 205.046 107.306 204.389 107.74 203.903C108.175 203.417 108.762 203.141 109.376 203.132H222.166C222.781 203.141 223.368 203.417 223.802 203.903C224.237 204.389 224.484 205.046 224.492 205.734Z" fill="#65617D"/>
<path opacity="0.1" d="M109.405 203.132V322.478H109.376C108.762 322.47 108.175 322.193 107.74 321.707C107.306 321.221 107.058 320.564 107.051 319.876V205.734C107.058 205.046 107.306 204.389 107.74 203.903C108.175 203.417 108.762 203.141 109.376 203.132H109.405Z" fill="black"/>
<path d="M114.556 210.206H219.046V307.85L114.556 310.484V210.206Z" fill="#D4DFEC"/>
<path opacity="0.1" d="M436.756 201.815H425.572V213.288H436.756V201.815Z" fill="black"/>
<path opacity="0.1" d="M427.438 318.553V322.774L399.67 321.945V318.553H427.438Z" fill="black"/>
<path d="M464.083 205.734V319.876C464.075 320.569 463.823 321.231 463.383 321.718C462.942 322.205 462.347 322.478 461.728 322.478L348.885 319.119C348.281 319.094 347.708 318.809 347.287 318.325C346.865 317.841 346.625 317.194 346.618 316.517V205.734C346.626 205.046 346.873 204.389 347.308 203.903C347.742 203.417 348.329 203.141 348.944 203.132H461.734C462.352 203.134 462.945 203.407 463.385 203.894C463.824 204.381 464.075 205.042 464.083 205.734Z" fill="#65617D"/>
<path opacity="0.1" d="M464.083 205.734V319.876C464.075 320.569 463.824 321.231 463.383 321.718C462.942 322.205 462.347 322.478 461.728 322.478V203.132C462.347 203.132 462.942 203.405 463.383 203.892C463.824 204.379 464.075 205.041 464.083 205.734Z" fill="black"/>
<path d="M456.577 210.206H352.087V307.85L456.577 310.484V210.206Z" fill="#D4DFEC"/>
<path d="M343.698 205.734V316.517C343.691 317.194 343.452 317.841 343.03 318.325C342.608 318.809 342.036 319.094 341.432 319.119L228.612 322.478C227.993 322.478 227.398 322.205 226.958 321.718C226.517 321.231 226.265 320.569 226.258 319.876V205.734C226.265 205.046 226.513 204.389 226.947 203.903C227.381 203.417 227.969 203.141 228.583 203.132H341.373C341.987 203.141 342.574 203.417 343.009 203.903C343.443 204.389 343.691 205.046 343.698 205.734Z" fill="#65617D"/>
<path d="M233.763 210.206H338.253V307.85L233.763 310.484V210.206Z" fill="#D4DFEC"/>
<path opacity="0.1" d="M508.086 351.485V360.047L418.655 360.969L417.701 360.989L383.711 361.338L382.898 361.351L372.567 361.45H372.261L309.284 362.102L205.907 363.176H205.819L179.534 363.452L179.252 363.459L62.4585 364.658V354.778L181.671 353.902H181.954L206.084 353.717H206.195L372.838 352.486H373.009L373.109 352.479H373.385L376.205 352.459H377.065L420.915 352.13L423.505 352.117L424.082 352.11L508.086 351.485Z" fill="black"/>
<path d="M286.838 213.064C303.527 213.064 317.055 197.928 317.055 179.256C317.055 160.584 303.527 145.448 286.838 145.448C270.15 145.448 256.622 160.584 256.622 179.256C256.622 197.928 270.15 213.064 286.838 213.064Z" fill="#FBBEBE"/>
<path d="M317.061 248.414C317.061 248.414 258.488 256.317 264.08 248.414C266.105 245.555 266.664 237.085 266.552 227.436C266.517 224.505 266.423 221.469 266.288 218.445C265.64 203.955 264.08 189.794 264.08 189.794C264.08 189.794 315.295 162.79 309.408 184.196C307.053 192.844 307.825 204.989 309.614 216.39C310.138 219.717 310.744 222.977 311.38 226.073C312.932 233.623 314.828 241.08 317.061 248.414Z" fill="#FBBEBE"/>
<path opacity="0.1" d="M317.061 248.414C317.061 248.414 258.488 256.317 264.08 248.414C266.105 245.555 266.664 237.085 266.552 227.436C275.483 223.168 286.844 226.349 286.844 226.349C298.806 223.682 306.476 224.202 311.38 226.073C312.932 233.623 314.828 241.08 317.061 248.414Z" fill="black"/>
<path d="M205.883 363.92V363.367L309.267 362.109L372.255 361.45H372.432L372.367 362.425L372.455 361.45H372.567V361.338L373.374 352.479L373.68 349.127L373.774 348.08L373.856 347.204L377.494 333.629L381.132 320.074L384.193 308.66L388.867 291.219C388.867 291.219 386.218 284.303 384.747 282.327C383.275 280.351 381.803 266.849 381.803 266.849C381.803 266.849 369.241 253.459 363.749 251.918C361.447 251.259 356.902 250.383 352.075 249.283C350.268 248.875 348.414 248.44 346.63 247.966C345.623 247.709 344.634 247.439 343.687 247.169C341.842 246.653 340.024 246.024 338.241 245.285C337.307 244.905 336.417 244.399 335.592 243.777C331.266 240.227 320.422 239.825 320.004 239.825C320.003 239.81 320.003 239.794 320.004 239.779V239.72C320.019 239.443 320.019 239.166 320.004 238.89C320.004 238.626 320.004 238.317 319.951 237.968C319.951 237.862 319.951 237.75 319.91 237.638C319.881 237.401 319.845 237.151 319.792 236.887C319.774 236.77 319.751 236.653 319.722 236.538C319.551 235.745 319.304 234.974 318.986 234.24C318.945 234.134 318.892 234.022 318.844 233.917C318.556 233.309 318.221 232.729 317.844 232.185C317.767 232.073 317.685 231.954 317.596 231.842C317.114 231.206 316.578 230.624 315.995 230.103C315.836 229.965 315.672 229.82 315.501 229.688C315.406 229.602 315.305 229.523 315.201 229.451L314.677 229.069L314.188 228.753C313.758 228.49 313.305 228.233 312.811 227.989C312.657 227.91 312.493 227.838 312.328 227.765C312.163 227.693 311.904 227.581 311.686 227.489H311.651L311.209 227.291C310.874 227.166 310.532 227.054 310.173 226.942L309.626 226.784L309.037 226.632L308.448 226.494C307.86 226.362 307.23 226.244 306.571 226.152L305.899 226.059L305.211 225.98L304.498 225.914L303.486 225.849L302.309 225.802C297.116 225.802 291.938 226.418 286.862 227.64C283.335 226.762 279.723 226.39 276.113 226.534H275.6L275.012 226.573H274.635L273.876 226.652C273.622 226.652 273.363 226.711 273.11 226.751C272.857 226.79 272.592 226.823 272.339 226.869L271.951 226.942C271.568 227.014 271.179 227.093 270.773 227.186C270.644 227.212 270.514 227.245 270.385 227.284C269.873 227.41 269.36 227.561 268.854 227.732C268.601 227.811 268.348 227.904 268.095 228.002C267.965 228.042 267.842 228.095 267.718 228.147L267.341 228.299L266.97 228.463L266.529 228.661C266.305 228.766 266.087 228.878 265.87 228.997C265.746 229.056 265.622 229.122 265.505 229.195C265.387 229.267 265.263 229.326 265.151 229.399C263.82 230.168 262.59 231.139 261.496 232.284L261.195 232.606L260.901 232.942C260.801 233.054 260.707 233.173 260.613 233.291C260.229 233.76 259.871 234.255 259.541 234.773C259.447 234.912 259.359 235.05 259.27 235.195C258.897 235.811 258.559 236.454 258.258 237.118C258.181 237.276 258.111 237.441 258.04 237.599C257.56 238.711 257.166 239.868 256.863 241.057C256.753 241.496 256.653 241.935 256.563 242.374C256.563 242.374 244.1 248.526 233.763 252.978C231.014 254.164 228.424 255.237 226.258 256.047C225.628 256.284 225.039 256.502 224.492 256.706C223.304 257.186 222.068 257.505 220.812 257.654C220.22 257.665 219.63 257.727 219.046 257.839C214.296 258.702 206.154 262.449 205.265 266.21C205.193 266.511 205.173 266.824 205.206 267.132C205.206 267.132 205.206 267.178 205.206 267.205C205.795 271.815 201.674 271.157 201.674 271.157C201.674 271.157 200.203 283.341 198.142 286.635C196.653 289.006 195.635 294.295 195.505 298.286C195.431 299.53 195.518 300.779 195.764 301.994C195.764 302.027 195.764 302.06 195.764 302.086C196 302.969 195.434 305.38 194.475 308.469C193.433 311.861 191.914 316.076 190.454 320.054C188.253 326.061 186.18 331.515 186.051 332.713C185.998 333.247 185.845 334.202 185.633 335.434C184.774 340.452 182.866 350.009 181.924 353.876C181.224 356.76 180.205 360.712 179.505 363.426C179.505 363.505 179.464 363.584 179.446 363.656L205.836 363.367V363.92H205.919H205.883Z" fill="#870738"/>
<path opacity="0.1" d="M215.514 286.286C215.514 286.286 249.069 305.716 261.137 303.41L215.514 286.286Z" fill="black"/>
<path opacity="0.1" d="M283.801 278.382C283.801 278.382 316.472 290.237 327.363 291.884C338.253 293.531 283.801 278.382 283.801 278.382Z" fill="black"/>
<path opacity="0.1" d="M320.04 240.233C302.968 243.75 270.826 242.993 256.933 242.46C262.026 222.042 286.856 228.984 286.856 228.984C317.591 222.121 319.945 236.361 320.04 240.233Z" fill="black"/>
<path d="M320.04 238.916C302.968 242.433 270.826 241.676 256.933 241.142C262.026 220.724 286.856 227.666 286.856 227.666C317.591 220.803 319.945 235.043 320.04 238.916Z" fill="#870738"/>
<path d="M410.66 328.933C410.66 328.933 430.769 325.475 431.164 335.355C431.558 345.234 420.909 352.137 420.909 352.137L410.66 328.933Z" fill="#FBBEBE"/>
<path opacity="0.1" d="M309.614 216.39C308.749 216.823 307.865 217.205 306.965 217.536C300.619 219.987 294.22 222.457 287.539 223.352C280.857 224.248 273.846 223.458 268.018 219.73C267.406 219.343 266.817 218.914 266.252 218.445C265.605 203.955 264.045 189.794 264.045 189.794C264.045 189.794 315.259 162.79 309.373 184.196C307.03 192.844 307.824 204.989 309.614 216.39Z" fill="black"/>
<path d="M278.55 126.413C277.71 126.662 276.829 126.687 275.979 126.487C275.128 126.286 274.332 125.867 273.652 125.261L274.876 127.164C274.155 127.257 273.424 127.173 272.734 126.917C272.045 126.661 271.414 126.24 270.885 125.682C270.774 127.386 270.837 129.099 271.074 130.787C269.047 130.896 267.053 130.196 265.446 128.811C265.414 129.405 265.547 129.996 265.824 130.503C266.102 131.011 266.513 131.411 267 131.65C264.965 131.377 262.91 131.943 261.221 133.241C259.531 134.539 258.321 136.481 257.817 138.704L260.889 139.02C258.474 139.597 256.307 141.076 254.744 143.215C253.802 144.533 253.084 146.219 253.496 147.826C253.908 149.433 255.897 150.46 256.981 149.314C255.44 151.372 254.32 153.782 253.7 156.375C253.079 158.968 252.974 161.681 253.39 164.325C253.669 165.451 253.761 166.626 253.66 167.789C253.466 168.876 252.854 169.818 252.548 170.878C251.959 172.801 252.518 174.889 253.042 176.806L255.803 186.962C256.804 190.631 257.799 194.306 259.106 197.856C260.031 200.101 260.818 202.414 261.46 204.779C262.202 207.966 262.232 211.457 263.815 214.243C264.9 215.997 266.351 217.428 268.042 218.412C273.864 222.14 280.899 222.931 287.562 222.035C294.226 221.139 300.619 218.669 306.959 216.219C308.368 215.745 309.72 215.081 310.986 214.243C315.371 211.029 316.349 204.456 317.167 198.666C318.079 192.212 319.298 185.77 321.458 179.697C322.742 176.082 324.402 172.413 324.119 168.54C323.76 163.396 320.122 159.227 319.221 154.169C318.92 152.478 318.934 150.735 319.262 149.051C319.542 148.047 319.698 147.006 319.728 145.955C319.627 143.834 318.073 142.201 316.613 140.838C313.446 137.878 310.177 135.081 306.806 132.446C306.635 131.129 308.237 130.563 308.961 129.522C309.985 128.053 308.925 125.722 307.371 125.037C305.817 124.352 304.075 124.8 302.456 125.254C302.561 124.327 302.396 123.387 301.986 122.573C301.575 121.759 300.941 121.115 300.177 120.737C299.413 120.359 298.561 120.266 297.746 120.474C296.932 120.681 296.199 121.178 295.657 121.888C295.227 120.785 294.54 119.832 293.668 119.127C292.796 118.423 291.771 117.994 290.7 117.884C286.797 117.541 286.72 120.881 284.225 122.718C281.729 124.556 279.668 122.132 277.749 120.367C277.396 121.365 277.285 122.449 277.425 123.51C277.566 124.571 277.954 125.573 278.55 126.413Z" fill="#3F3D56"/>
<path d="M425.571 348.692C425.571 348.692 425.048 350.088 424.082 352.11C422.622 355.221 420.844 358.132 418.784 360.785L418.625 360.976H417.671L383.681 361.325H382.869L382.769 361.193L376.176 352.44L373.691 349.14L373.591 349.002L373.379 348.725L373.262 348.567L373.109 348.363L368.276 341.948L370.042 333.714L373.05 319.843L373.126 319.508L373.715 316.873L374.133 314.897L375.534 308.456L380.338 286.292L388.873 291.232L397.874 309.015L402.707 318.566H405.356C405.857 318.566 407.005 319.646 408.158 320.891C408.57 321.332 408.983 321.8 409.336 322.208C410.384 323.42 411.214 324.461 411.214 324.461C411.214 324.461 415.505 324.566 416.659 328.347C416.718 328.529 416.768 328.717 416.806 328.906C417.189 330.392 417.687 331.838 418.295 333.227C419.055 335.078 420.008 337.179 420.974 339.28C422.769 343.133 424.594 346.802 425.265 348.132L425.348 348.297L425.571 348.692Z" fill="#870738"/>
<path opacity="0.1" d="M375.004 318.954L374.945 319.896V319.962L374.845 321.477L374.062 333.668L373.115 348.356L372.844 352.492L372.255 361.345V361.457L309.267 362.115L205.901 363.367V363.92H205.819V363.367V363.182L206.084 353.724L206.59 335.243L207.026 319.573L207.067 318.012C207.092 317.07 207.29 316.144 207.646 315.29C208.003 314.436 208.511 313.672 209.14 313.045C209.769 312.418 210.506 311.941 211.305 311.644C212.105 311.346 212.95 311.234 213.789 311.314C216.568 311.577 220.177 311.9 224.492 312.243L226.258 312.388C251.176 314.324 297.228 316.827 343.698 313.705C344.676 313.646 345.659 313.58 346.642 313.501C353.847 312.994 361.047 312.342 368.176 311.525C369.077 311.419 369.988 311.536 370.844 311.867C371.701 312.197 372.482 312.734 373.133 313.44C373.784 314.145 374.289 315.001 374.612 315.948C374.936 316.895 375.069 317.91 375.004 318.921V318.954Z" fill="black"/>
<path d="M205.884 363.92V363.367L309.267 362.109L372.255 361.45H372.432V361.338L373.02 352.486L373.274 348.534L374.239 333.642L374.998 321.852V321.563C375.033 321.019 375.012 320.473 374.934 319.936C374.937 319.914 374.937 319.892 374.934 319.87C374.772 318.758 374.367 317.709 373.756 316.814C373.108 315.884 372.259 315.154 371.289 314.693C370.318 314.232 369.259 314.055 368.211 314.179C361.082 314.996 353.883 315.648 346.677 316.155C345.694 316.234 344.711 316.3 343.734 316.359C297.264 319.448 251.212 316.945 226.293 315.042L224.527 314.897C220.212 314.555 216.603 314.238 213.825 313.968C212.296 313.824 210.774 314.318 209.552 315.356C208.33 316.393 207.495 317.901 207.208 319.587C207.149 319.943 207.113 320.304 207.102 320.667L206.702 335.262L206.154 353.75L205.895 363.208V363.393V363.946L205.884 363.92Z" fill="#3F3D56"/>
<path opacity="0.1" d="M375.181 323.571L374.457 333.668L373.379 348.718L373.109 352.486L372.52 360.923L372.485 361.345V361.457L372.396 362.431L372.461 361.457H372.29L309.302 362.115L205.901 363.367V363.182L206.19 353.724L206.778 335.243L207.155 322.959C207.174 322.26 207.348 321.578 207.663 320.974C207.977 320.37 208.422 319.863 208.956 319.501C209.623 319.044 210.402 318.836 211.182 318.908C212.418 319.02 213.937 319.152 215.708 319.297C218.587 319.534 222.137 319.811 226.269 320.1C233.922 320.64 243.523 321.22 254.526 321.694C285.137 323.012 326.462 323.453 365.715 319.606C367.481 319.435 369.306 319.244 371.089 319.053C371.796 318.974 372.507 319.125 373.138 319.488C373.317 319.587 373.486 319.707 373.644 319.843C374.157 320.259 374.563 320.818 374.822 321.464C374.882 321.592 374.931 321.727 374.969 321.866C375.146 322.411 375.218 322.992 375.181 323.571Z" fill="black"/>
<path opacity="0.1" d="M175.484 332.588V334.689C175.485 335.453 175.291 336.202 174.926 336.848C174.562 337.494 174.041 338.01 173.424 338.338L149.818 338.845C149.19 338.523 148.659 338.007 148.286 337.356C147.913 336.706 147.716 335.949 147.716 335.177V333.201L175.484 332.588Z" fill="black"/>
<path d="M175.779 339.576L145.02 340.235V334.525L175.779 333.866V339.576Z" fill="#3F3D56"/>
<path opacity="0.1" d="M175.779 339.576L145.02 340.235V334.525L175.779 333.866V339.576Z" fill="black"/>
<path d="M176.956 339.576L146.198 340.235V334.525L176.956 333.866V339.576Z" fill="#3F3D56"/>
<g opacity="0.1">
<path opacity="0.1" d="M278.791 124.253C278.216 123.417 277.834 122.435 277.678 121.394C277.537 122.412 277.622 123.452 277.926 124.424C278.218 124.394 278.507 124.337 278.791 124.253Z" fill="black"/>
<path opacity="0.1" d="M271.315 128.626C271.204 127.819 271.131 127.005 271.097 126.189C271.097 126.999 271.097 127.816 271.097 128.633L271.315 128.626Z" fill="black"/>
<path opacity="0.1" d="M319.292 150.605C319.325 150.018 319.395 149.435 319.504 148.86C319.782 147.858 319.941 146.819 319.975 145.771C319.962 145.535 319.93 145.302 319.881 145.073C319.781 145.679 319.622 146.285 319.504 146.884C319.269 148.106 319.197 149.36 319.292 150.605Z" fill="black"/>
<path opacity="0.1" d="M307.047 130.253L307.689 130.774C308.23 130.336 308.736 129.847 309.202 129.311C309.424 128.969 309.561 128.567 309.6 128.146C309.639 127.725 309.579 127.3 309.426 126.914C309.367 127.064 309.292 127.206 309.202 127.335C308.478 128.376 306.877 128.949 307.047 130.253Z" fill="black"/>
<path opacity="0.1" d="M258.676 136.589C258.461 137.07 258.29 137.573 258.164 138.091C259.085 137.516 260.077 137.096 261.107 136.846L258.676 136.589Z" fill="black"/>
<path opacity="0.1" d="M266.794 129.423C266.407 129.185 266.037 128.914 265.687 128.613C265.672 128.874 265.69 129.135 265.74 129.39C266.092 129.372 266.444 129.383 266.794 129.423Z" fill="black"/>
<path opacity="0.1" d="M324.349 168.23C324.107 171.425 322.777 174.501 321.7 177.531C319.539 183.603 318.321 190.045 317.408 196.506C316.59 202.296 315.642 208.869 311.227 212.076C309.966 212.92 308.615 213.583 307.206 214.052C300.861 216.509 294.462 218.972 287.78 219.868C281.099 220.764 274.088 219.98 268.26 216.252C266.57 215.266 265.119 213.835 264.033 212.083C262.461 209.297 262.432 205.806 261.678 202.618C261.036 200.251 260.249 197.936 259.324 195.689C258.023 192.146 257.022 188.444 256.027 184.802C255.105 181.417 254.184 178.029 253.266 174.639C252.964 173.619 252.739 172.573 252.595 171.511C252.365 173.197 252.813 174.962 253.266 176.615C254.184 180.009 255.105 183.397 256.027 186.778C257.022 190.447 258.023 194.122 259.324 197.665C260.249 199.912 261.036 202.227 261.678 204.594C262.42 207.782 262.449 211.273 264.033 214.059C265.119 215.811 266.57 217.242 268.26 218.228C274.088 221.956 281.116 222.74 287.78 221.844C294.444 220.948 300.837 218.485 307.206 216.028C308.615 215.559 309.966 214.896 311.227 214.052C315.613 210.845 316.59 204.271 317.408 198.482C318.321 192.021 319.539 185.579 321.7 179.506C322.983 175.897 324.643 172.228 324.36 168.349C324.36 168.31 324.349 168.27 324.349 168.23Z" fill="black"/>
<path opacity="0.1" d="M253.89 165.682C253.89 165.682 253.89 165.635 253.89 165.609C253.996 164.448 253.904 163.274 253.619 162.151C253.502 161.428 253.425 160.698 253.39 159.965C253.322 161.357 253.399 162.754 253.619 164.127C253.714 164.641 253.82 165.161 253.89 165.682Z" fill="black"/>
<path opacity="0.1" d="M255.686 149.571C256.138 148.72 256.652 147.912 257.222 147.154C256.145 148.307 254.155 147.279 253.737 145.679C253.583 146.326 253.583 147.007 253.737 147.655C253.882 148.138 254.139 148.57 254.481 148.906C254.823 149.243 255.239 149.472 255.686 149.571Z" fill="black"/>
</g>
<path opacity="0.1" d="M402.713 318.559C402.713 318.559 404.579 326.134 402.713 332.72C400.847 339.306 402.713 318.559 402.713 318.559Z" fill="black"/>
<path opacity="0.1" d="M410.66 326.285C410.66 326.285 411.443 335.901 409.677 337.607C407.911 339.313 410.66 326.285 410.66 326.285Z" fill="black"/>
<path d="M117.141 225.822L176.956 225.164" stroke="#870738" stroke-width="2" stroke-miterlimit="10"/>
<path d="M117.141 234.036L176.956 233.383" stroke="#870738" stroke-width="2" stroke-miterlimit="10"/>
<path d="M117.141 242.255L176.956 241.597" stroke="#870738" stroke-width="2" stroke-miterlimit="10"/>
</g>
<defs>
<clipPath id="clip0">
<rect width="613" height="365" fill="white"/>
</clipPath>
</defs>
</svg>
